<?xml version="1.0" encoding="utf-8"?>
<!-- Generator: Adobe Illustrator 22.1.0, SVG Export Plug-In . SVG Version: 6.00 Build 0)  -->
<svg version="1.1" id="图层_1" xmlns="http://www.w3.org/2000/svg" xmlns:xlink="http://www.w3.org/1999/xlink" x="0px" y="0px"
	 viewBox="0 0 16 16" style="enable-background:new 0 0 16 16;" xml:space="preserve">
<path class="st0" d="M12,16H4c-2.2,0-4-1.8-4-4V4c0-2.2,1.8-4,4-4h8c2.2,0,4,1.8,4,4v8C16,14.2,14.2,16,12,16z M14,4
	c0-1.1-0.9-2-2-2H4C2.9,2,2,2.9,2,4v8c0,1.1,0.9,2,2,2h8c1.1,0,2-0.9,2-2V4z M11,13H5c-0.6,0-1-0.4-1-1s0.4-1,1-1h6c0.6,0,1,0.4,1,1
	S11.6,13,11,13z M10.4,9.7l-1-1C8.9,8.9,8.5,9,8,9S7.1,8.9,6.7,8.7l-1,1c-0.4,0.4-1,0.4-1.4,0s-0.4-1,0-1.4l1-1C5.1,6.9,5,6.5,5,6
	c0-1.7,1.3-3,3-3s3,1.3,3,3c0,0.5-0.1,0.9-0.3,1.3l1,1c0.4,0.4,0.4,1,0,1.4S10.7,10.1,10.4,9.7z M8,5C7.4,5,7,5.4,7,6s0.4,1,1,1
	s1-0.4,1-1S8.6,5,8,5z"/>
</svg>
