<?xml version="1.0" encoding="iso-8859-1"?>
<!-- Generator: Adobe Illustrator 18.0.0, SVG Export Plug-In . SVG Version: 6.00 Build 0)  -->
<!DOCTYPE svg PUBLIC "-//W3C//DTD SVG 1.1//EN" "http://www.w3.org/Graphics/SVG/1.1/DTD/svg11.dtd">
<svg version="1.1" id="Capa_1" xmlns="http://www.w3.org/2000/svg" xmlns:xlink="http://www.w3.org/1999/xlink" x="0px" y="0px"
	 viewBox="0 0 195 195" style="enable-background:new 0 0 195 195;" xml:space="preserve">
<path d="M195,192.5V2.5c0-1.381-1.119-2.5-2.5-2.5H56.611c-0.663,0-1.299,0.264-1.768,0.732L0.732,54.844
	C0.264,55.313,0,55.948,0,56.611V192.5c0,1.381,1.119,2.5,2.5,2.5h190C193.881,195,195,193.881,195,192.5z M126,21.5h18.5v49H126
	V21.5z M96,21.5h18.5v49H96V21.5z M66,21.5h18.5v49H66V21.5z M164.47,168.208H30.53v-72.75H164.47V168.208z M174.5,70.5H156v-49
	h18.5V70.5z M45.166,123.167v-10.668c0-0.276,0.224-0.5,0.5-0.5h103.668c0.276,0,0.5,0.224,0.5,0.5v10.668
	c0,0.276-0.224,0.5-0.5,0.5H45.666C45.39,123.667,45.166,123.443,45.166,123.167z M45.166,151.167v-10.668
	c0-0.276,0.224-0.5,0.5-0.5h103.668c0.276,0,0.5,0.224,0.5,0.5v10.668c0,0.276-0.224,0.5-0.5,0.5H45.666
	C45.39,151.667,45.166,151.443,45.166,151.167z"/>
<g>
</g>
<g>
</g>
<g>
</g>
<g>
</g>
<g>
</g>
<g>
</g>
<g>
</g>
<g>
</g>
<g>
</g>
<g>
</g>
<g>
</g>
<g>
</g>
<g>
</g>
<g>
</g>
<g>
</g>
</svg>
