<?xml version="1.0" encoding="utf-8"?>
<!-- Generator: Adobe Illustrator 22.1.0, SVG Export Plug-In . SVG Version: 6.00 Build 0)  -->
<svg version="1.1" id="图层_1" xmlns="http://www.w3.org/2000/svg" xmlns:xlink="http://www.w3.org/1999/xlink" x="0px" y="0px"
	 viewBox="0 0 16 16" style="enable-background:new 0 0 16 16;" xml:space="preserve">
<style type="text/css">
	.st0{fill:#2E3442;}
</style>
<path class="st0" d="M15,4H1C0.4,4,0,3.6,0,3s0.4-1,1-1h5c0-0.5,0-0.4,0-1s0.4-1,1-1h2c0.6,0,1,0.4,1,1s0,0.6,0,1h5c0.6,0,1,0.4,1,1
	S15.6,4,15,4z M4,13c0,0.6,0.4,1,1,1V8c0-0.6,0.4-1,1-1s1,0.4,1,1v6h2V8c0-0.6,0.4-1,1-1s1,0.4,1,1v6c0.6,0,1-0.4,1-1V6
	c0-0.6,0.4-1,1-1l0,0c0.6,0,1,0.4,1,1v8c0,1.1-0.9,2-2,2H4c-1.1,0-2-0.9-2-2V6c0-0.6,0.4-1,1-1l0,0c0.6,0,1,0.4,1,1V13z"/>
</svg>
