<?xml version="1.0" encoding="utf-8"?>
<!-- Generator: Adobe Illustrator 22.1.0, SVG Export Plug-In . SVG Version: 6.00 Build 0)  -->
<svg version="1.1" id="图层_1" xmlns="http://www.w3.org/2000/svg" xmlns:xlink="http://www.w3.org/1999/xlink" x="0px" y="0px"
	 viewBox="0 0 16 16" style="enable-background:new 0 0 16 16;" xml:space="preserve">
<style type="text/css">
	.st0{fill-rule:evenodd;clip-rule:evenodd;fill:#2E3442;}
</style>
<g>
	<path class="st0" d="M11,0H5C2.8,0,1,1.8,1,4v8c0,2.2,1.8,4,4,4h6c2.2,0,4-1.8,4-4V4C15,1.8,13.2,0,11,0z M13,12c0,1.1-0.9,2-2,2H5
		c-1.1,0-2-0.9-2-2V4c0-1.1,0.9-2,2-2h6c1.1,0,2,0.9,2,2V12z"/>
	<path class="st0" d="M5,7V5h6v2H5z"/>
	<path class="st0" d="M5,11V9h6v2H5z"/>
</g>
</svg>
