<?xml version="1.0" encoding="utf-8"?>
<!-- Generator: Adobe Illustrator 22.1.0, SVG Export Plug-In . SVG Version: 6.00 Build 0)  -->
<svg version="1.1" id="图层_1" xmlns="http://www.w3.org/2000/svg" xmlns:xlink="http://www.w3.org/1999/xlink" x="0px" y="0px"
	 viewBox="0 0 16 16" style="enable-background:new 0 0 16 16;" xml:space="preserve">
<style type="text/css">
	.st0{fill-rule:evenodd;clip-rule:evenodd;fill:#2E3442;}
</style>
<path class="st0" d="M14,12c0,1.1-0.9,2-2,2H4c-1.1,0-2-0.9-2-2V4c0-1.1,0.9-2,2-2h5c0.6,0,1-0.4,1-1v0c0-0.6-0.4-1-1-1H4
	C1.8,0,0,1.8,0,4v8c0,2.2,1.8,4,4,4h8c2.2,0,4-1.8,4-4V7c0-0.6-0.4-1-1-1h0c-0.6,0-1,0.4-1,1V12z"/>
<path class="st0" d="M15.2,2.2l-8.3,8.3c-0.4,0.4-1,0.4-1.4,0l0,0c-0.4-0.4-0.4-1,0-1.4l8.3-8.3c0.4-0.4,1-0.4,1.4,0l0,0
	C15.6,1.1,15.6,1.8,15.2,2.2z"/>
</svg>
