<?xml version="1.0" encoding="utf-8"?>
<!-- Generator: Adobe Illustrator 17.1.0, SVG Export Plug-In . SVG Version: 6.00 Build 0)  -->
<!DOCTYPE svg PUBLIC "-//W3C//DTD SVG 1.1//EN" "http://www.w3.org/Graphics/SVG/1.1/DTD/svg11.dtd">
<svg version="1.1" id="Layer_1" xmlns="http://www.w3.org/2000/svg" xmlns:xlink="http://www.w3.org/1999/xlink" x="0px" y="0px"
	 viewBox="0 0 24 24" enable-background="new 0 0 24 24" xml:space="preserve">
<path class="st1" d="M24,6.231v7.538c0,0-1.555,0.317-1.875,0.359c-0.32,0.042-1.322,0.377-2.051-0.347
	c-1.121-1.116-5.107-5.227-5.107-5.227s-0.687-0.699-1.791-0.094c-1.037,0.568-2.592,1.408-3.19,1.707
	c-0.597,0.297-2.177-1.933-1.305-2.483c1.395-0.882,4.505-2.694,5.784-3.399c0.763-0.42,1.313-0.456,2.36,0.457
	c1.29,1.127,2.437,2.152,2.437,2.152s0.537,0.257,0.971,0.194C21.141,6.954,24,6.231,24,6.231z"/>
<path class="st1" d="M9.534,19.314c-0.36-0.383-0.898-0.472-1.394-0.311c0.193-0.514,0.128-1.09-0.242-1.484
	c-0.333-0.355-0.817-0.448-1.28-0.338c0.129-0.475,0.058-0.981-0.277-1.339c-0.334-0.354-0.817-0.447-1.28-0.337
	c0.128-0.475,0.057-0.981-0.277-1.339c-0.524-0.558-1.43-0.534-2.025,0.055c-0.592,0.59-0.972,1.657-0.443,2.283
	c0.528,0.626,1.133,0.246,1.596,0.136c-0.128,0.475-0.514,0.918-0.04,1.54c0.473,0.624,1.133,0.246,1.596,0.135
	c-0.129,0.475-0.498,0.962-0.041,1.54c0.46,0.578,1.214,0.27,1.711,0.11c-0.192,0.513-0.603,1.064-0.075,1.686
	c0.527,0.622,1.746,0.332,2.342-0.257C10,20.805,10.056,19.872,9.534,19.314z"/>
<path class="st1" d="M15.178,18.402c0.411,0.427,0.41,1.121,0,1.547c-0.411,0.426-1.081,0.427-1.491,0
	c-0.413-0.427-0.368-1.166,0.043-1.592C14.14,17.931,14.766,17.975,15.178,18.402z"/>
<path class="st1" d="M17.227,16.911c0.411,0.427,0.41,1.121,0,1.547c-0.411,0.426-1.081,0.427-1.491,0
	c-0.413-0.427-0.368-1.166,0.043-1.592C16.189,16.44,16.815,16.484,17.227,16.911z"/>
<path class="st1" d="M19.022,15.093c0.411,0.427,0.41,1.121,0,1.547c-0.411,0.426-1.081,0.427-1.491,0
	c-0.413-0.427-0.368-1.166,0.043-1.592C17.985,14.622,18.61,14.666,19.022,15.093z"/>
<path class="st1" d="M13.029,19.749c0.411,0.427,0.41,1.121,0,1.547c-0.411,0.426-1.08,0.427-1.491,0
	c-0.213-0.221-0.557-0.623-0.557-0.623c0.274-0.389,0.261-0.618,0.557-0.925C11.949,19.323,12.617,19.322,13.029,19.749z"/>
<ellipse class="st1" cx="9.251" cy="8.966" rx="1.38" ry="1.432"/>
<path class="st1" d="M19.028,15.105c-4.338-4.5-2.299-2.385-4.619-4.796c0,0-0.697-0.72-1.614-0.302
	c-0.644,0.293-1.473,0.692-2.098,0.996c-0.687,0.372-1.286,0.486-1.411,0.486c-1.325,0-2.4-1.114-2.4-2.488
	c0-0.891,0.456-1.667,1.136-2.107c0.956-0.686,3.158-1.902,3.158-1.902S10.51,4.11,9.04,4.11c-1.469,0-4.537,2.087-4.537,2.087
	S3.632,6.776,2.391,6.255L0,5.391v8.624c0,0,0.682,0.206,1.296,0.465c0.14-0.409,0.361-0.789,0.673-1.101
	c1.018-1.006,2.704-1.017,3.631-0.028c0.278,0.299,0.473,0.661,0.573,1.055c0.374,0.12,0.71,0.331,0.983,0.622
	c0.279,0.297,0.473,0.659,0.574,1.054c0.374,0.12,0.709,0.331,0.983,0.623c0.307,0.327,0.511,0.725,0.608,1.156
	c0.389,0.118,0.743,0.335,1.027,0.639c0.555,0.592,0.754,1.397,0.633,2.174c0.311,0.454,1.956-0.455,2.007-0.971
	c-1.385-1.437-1.457-1.541-1.32-1.683c0.137-0.142,0.34,0.171,1.89,1.78c0.202,0.209,2.467-0.514,1.486-1.532
	c-1.414-1.466-1.575-1.745-1.467-1.857c0.123-0.128,0.782,0.622,2.189,2.081c0.779,0,1.754-1.296,1.495-1.565
	c-1.781-1.849-1.705-1.877-1.597-1.989c0.108-0.112,0.115-0.12,1.861,1.691C17.841,16.956,19.349,15.438,19.028,15.105z"/>
</svg>
