<?xml version="1.0" encoding="utf-8"?>
<!-- Generator: Adobe Illustrator 22.1.0, SVG Export Plug-In . SVG Version: 6.00 Build 0)  -->
<svg version="1.1" id="图层_1" xmlns="http://www.w3.org/2000/svg" xmlns:xlink="http://www.w3.org/1999/xlink" x="0px" y="0px"
	 viewBox="0 0 16 16" style="enable-background:new 0 0 16 16;" xml:space="preserve">
<style type="text/css">
	.st0{fill:#2E3442;}
</style>
<path class="st0" d="M5.4,6.8L1.2,2.6c-0.4-0.4-0.4-1,0-1.4l0,0c0.4-0.4,1-0.4,1.4,0l4.2,4.2c0.4,0.4,0.4,1,0,1.4l0,0
	C6.4,7.2,5.8,7.2,5.4,6.8z"/>
<path class="st0" d="M5,2H1C0.4,2,0,1.6,0,1v0c0-0.6,0.4-1,1-1l4,0c0.6,0,1,0.4,1,1v0C6,1.6,5.6,2,5,2z"/>
<path class="st0" d="M2,1v4c0,0.6-0.4,1-1,1h0C0.4,6,0,5.6,0,5l0-4c0-0.6,0.4-1,1-1h0C1.6,0,2,0.4,2,1z"/>
<path class="st0" d="M10.6,6.8l4.2-4.2c0.4-0.4,0.4-1,0-1.4l0,0c-0.4-0.4-1-0.4-1.4,0L9.2,5.4c-0.4,0.4-0.4,1,0,1.4l0,0
	C9.6,7.2,10.2,7.2,10.6,6.8z"/>
<path class="st0" d="M11,2h4c0.6,0,1-0.4,1-1v0c0-0.6-0.4-1-1-1l-4,0c-0.6,0-1,0.4-1,1v0C10,1.6,10.4,2,11,2z"/>
<path class="st0" d="M14,1v4c0,0.6,0.4,1,1,1h0c0.6,0,1-0.4,1-1V1c0-0.6-0.4-1-1-1h0C14.4,0,14,0.4,14,1z"/>
<path class="st0" d="M5.4,9.2l-4.2,4.2c-0.4,0.4-0.4,1,0,1.4l0,0c0.4,0.4,1,0.4,1.4,0l4.2-4.2c0.4-0.4,0.4-1,0-1.4l0,0
	C6.4,8.8,5.8,8.8,5.4,9.2z"/>
<path class="st0" d="M5,14H1c-0.6,0-1,0.4-1,1v0c0,0.6,0.4,1,1,1h4c0.6,0,1-0.4,1-1v0C6,14.4,5.6,14,5,14z"/>
<path class="st0" d="M2,15v-4c0-0.6-0.4-1-1-1h0c-0.6,0-1,0.4-1,1l0,4c0,0.6,0.4,1,1,1h0C1.6,16,2,15.6,2,15z"/>
<path class="st0" d="M10.6,9.2l4.2,4.2c0.4,0.4,0.4,1,0,1.4l0,0c-0.4,0.4-1,0.4-1.4,0l-4.2-4.2c-0.4-0.4-0.4-1,0-1.4l0,0
	C9.6,8.8,10.2,8.8,10.6,9.2z"/>
<path class="st0" d="M11,14h4c0.6,0,1,0.4,1,1v0c0,0.6-0.4,1-1,1h-4c-0.6,0-1-0.4-1-1v0C10,14.4,10.4,14,11,14z"/>
<path class="st0" d="M14,15v-4c0-0.6,0.4-1,1-1h0c0.6,0,1,0.4,1,1v4c0,0.6-0.4,1-1,1h0C14.4,16,14,15.6,14,15z"/>
</svg>
