<?xml version="1.0" encoding="utf-8"?>
<!-- Generator: Adobe Illustrator 22.1.0, SVG Export Plug-In . SVG Version: 6.00 Build 0)  -->
<svg version="1.1" id="图层_1" xmlns="http://www.w3.org/2000/svg" xmlns:xlink="http://www.w3.org/1999/xlink" x="0px" y="0px"
	 viewBox="0 0 16 16" style="enable-background:new 0 0 16 16;" xml:space="preserve">
<style type="text/css">
	.st0{fill-rule:evenodd;clip-rule:evenodd;fill:#2E3442;}
</style>
<path class="st0" d="M6,10H3c-0.6,0-1-0.4-1-1V7c0-0.6,0.4-1,1-1h3c0.6,0,1-0.4,1-1c0-0.6-0.4-1-1-1H2C0.9,4,0,4.9,0,6v4
	c0,1.1,0.9,2,2,2h4c0.6,0,1-0.4,1-1C7,10.4,6.6,10,6,10z"/>
<path class="st0" d="M5,9h6c0.6,0,1-0.4,1-1v0c0-0.6-0.4-1-1-1H5C4.4,7,4,7.4,4,8v0C4,8.6,4.4,9,5,9z"/>
<path class="st0" d="M14,4h-4C9.4,4,9,4.4,9,5c0,0.6,0.4,1,1,1h3c0.6,0,1,0.4,1,1v2c0,0.6-0.4,1-1,1h-3c-0.6,0-1,0.4-1,1
	c0,0.6,0.4,1,1,1h4c1.1,0,2-0.9,2-2V6C16,4.9,15.1,4,14,4z"/>
</svg>
