<?xml version="1.0" encoding="utf-8"?>
<!-- Generator: Adobe Illustrator 22.1.0, SVG Export Plug-In . SVG Version: 6.00 Build 0)  -->
<svg version="1.1" id="图层_1" xmlns="http://www.w3.org/2000/svg" xmlns:xlink="http://www.w3.org/1999/xlink" x="0px" y="0px"
	 viewBox="0 0 16 16" style="enable-background:new 0 0 16 16;" xml:space="preserve">
<style type="text/css">
	.st0{opacity:0;fill:#FFFFFF;}
	.st1{fill:#2E3442;}
</style>
<g>
	<path class="st0" d="M4,15c-1.7,0-3-1.3-3-3v-2c0-1.7,1.3-3,3-3h8c1.7,0,3,1.3,3,3v2c0,1.7-1.3,3-3,3H4z"/>
	<path class="st1" d="M12,8c1.1,0,2,0.9,2,2v2c0,1.1-0.9,2-2,2H4c-1.1,0-2-0.9-2-2v-2c0-1.1,0.9-2,2-2H12 M12,6H4c-2.2,0-4,1.8-4,4
		v2c0,2.2,1.8,4,4,4h8c2.2,0,4-1.8,4-4v-2C16,7.8,14.2,6,12,6L12,6z"/>
</g>
<path class="st1" d="M10,6V4c0-1.1-0.9-2-2-2h0C6.9,2,6,2.9,6,4v2H4V2c0-1.1,0.9-2,2-2h4c1.1,0,2,0.9,2,2v4H10z M10,12H6
	c-0.6,0-1-0.4-1-1v0c0-0.6,0.4-1,1-1h4c0.6,0,1,0.4,1,1v0C11,11.6,10.6,12,10,12z"/>
</svg>
