<?xml version="1.0" encoding="utf-8"?>
<!-- Generator: Adobe Illustrator 22.1.0, SVG Export Plug-In . SVG Version: 6.00 Build 0)  -->
<svg version="1.1" id="图层_1" xmlns="http://www.w3.org/2000/svg" xmlns:xlink="http://www.w3.org/1999/xlink" x="0px" y="0px"
	 viewBox="0 0 16 16" style="enable-background:new 0 0 16 16;" xml:space="preserve">
<style type="text/css">
	.st0{fill-rule:evenodd;clip-rule:evenodd;fill:#2E3442;}
</style>
<path class="st0" d="M13,0H3h0C1.9,0,1,0.9,1,2v0v3v0c0,1.1,0.9,2,2,2h0h2v7.4V15c0,0.7,0.7,1.2,1.3,0.9l3.3-1.1
	c0.8-0.3,1.4-1,1.4-1.9v-0.6V7h2h0c1.1,0,2-0.9,2-2v0V2v0C15,0.9,14.1,0,13,0L13,0z M13,4c0,0.5-0.4,1-1,1h-1h-1C9.4,5,9,5.4,9,6v1
	v4.6c0,0.9-0.5,1.6-1.4,1.9l0,0C7.3,13.6,7,13.4,7,13V7V6c0-0.5-0.4-1-1-1H5H4C3.4,5,3,4.6,3,4V3c0-0.5,0.4-1,1-1h8c0.6,0,1,0.4,1,1
	V4z"/>
<path class="st0" d="M10.5,4h-5C5.2,4,5,3.8,5,3.5v0C5,3.2,5.2,3,5.5,3h5C10.8,3,11,3.2,11,3.5v0C11,3.8,10.8,4,10.5,4z"/>
</svg>
