<?xml version="1.0" encoding="utf-8"?>
<!-- Generator: Adobe Illustrator 22.1.0, SVG Export Plug-In . SVG Version: 6.00 Build 0)  -->
<svg version="1.1" id="图层_1" xmlns="http://www.w3.org/2000/svg" xmlns:xlink="http://www.w3.org/1999/xlink" x="0px" y="0px"
	 viewBox="0 0 16 16" style="enable-background:new 0 0 16 16;" xml:space="preserve">
<circle class="st0" cx="14" cy="14" r="2"/>
<circle class="st0" cx="8" cy="14" r="2"/>
<circle class="st0" cx="2" cy="14" r="2"/>
<path class="st0" d="M2,12c0.4,0,0.7,0.1,1,0.3V10h4v2.3C7.3,12.1,7.6,12,8,12c0.4,0,0.7,0.1,1,0.3V10h4v2.3c0.3-0.2,0.6-0.3,1-0.3
	s0.7,0.1,1,0.3V9c0-0.6-0.4-1-1-1H9V6c1.1,0,2-0.9,2-2V2c0-1.1-0.9-2-2-2H7C5.9,0,5,0.9,5,2v2c0,1.1,0.9,2,2,2v2H2C1.4,8,1,8.4,1,9
	v3.3C1.3,12.1,1.6,12,2,12z"/>
</svg>
