<?xml version="1.0" encoding="utf-8"?>
<!-- Generator: Adobe Illustrator 22.1.0, SVG Export Plug-In . SVG Version: 6.00 Build 0)  -->
<svg version="1.1" id="图层_1" xmlns="http://www.w3.org/2000/svg" xmlns:xlink="http://www.w3.org/1999/xlink" x="0px" y="0px"
	 viewBox="0 0 16 16" style="enable-background:new 0 0 16 16;" xml:space="preserve">
<style type="text/css">
	.st0{opacity:0.6;enable-background:new    ;}
	.st1{opacity:0;fill:#8497C6;}
	.st2{fill:#2D3440;}
</style>
<g class="st0">
	<path class="st1" d="M7,15c-1.7,0-3-1.3-3-3s1.3-3,3-3h1V1v2h2H8v6h1c1.7,0,3,1.3,3,3s-1.3,3-3,3H7z"/>
	<path class="st2" d="M9,10c1.1,0,2,0.9,2,2s-0.9,2-2,2H7c-1.1,0-2-0.9-2-2s0.9-2,2-2H9 M9,0H7v8c-2.2,0-4,1.8-4,4s1.8,4,4,4h2
		c2.2,0,4-1.8,4-4s-1.8-4-4-4V4h2V2H9V0L9,0z"/>
</g>
</svg>
