<?xml version="1.0" encoding="utf-8"?>
<!-- Generator: Adobe Illustrator 22.1.0, SVG Export Plug-In . SVG Version: 6.00 Build 0)  -->
<svg version="1.1" id="图层_1" xmlns="http://www.w3.org/2000/svg" xmlns:xlink="http://www.w3.org/1999/xlink" x="0px" y="0px"
	 viewBox="0 0 16 16" style="enable-background:new 0 0 16 16;" xml:space="preserve">
<style type="text/css">
	.st0{fill-rule:evenodd;clip-rule:evenodd;fill:#2E3442;}
</style>
<path class="st0" d="M15.5,8H14c0-4.4-4-7.8-8.5-6.8C2.8,1.7,0.7,3.8,0.2,6.5C-0.8,11,2.6,15,7,15c1.9,0,3.6-0.7,4.8-2
	c0.4-0.4,0.2-1-0.4-1l-1,0c-0.3,0-0.5,0.1-0.7,0.2c-0.5,0.3-1.5,0.9-3.4,0.7c-1.6-0.2-3.2-1.2-3.8-2.7C0.8,6.6,3.5,3,7,3
	c2.8,0,5,2.2,5,5h-1.2c-0.4,0-0.6,0.5-0.3,0.8l2.4,2.4c0.2,0.2,0.5,0.2,0.7,0l2.4-2.4C16.2,8.5,15.9,8,15.5,8z"/>
</svg>
