<?xml version="1.0" encoding="iso-8859-1"?>
<!-- Generator: Adobe Illustrator 19.0.0, SVG Export Plug-In . SVG Version: 6.00 Build 0)  -->
<svg version="1.1" id="Layer_1" xmlns="http://www.w3.org/2000/svg" xmlns:xlink="http://www.w3.org/1999/xlink" x="0px" y="0px"
	 viewBox="0 0 512 512" style="enable-background:new 0 0 512 512;" xml:space="preserve">
<g>
	<g>
		<path d="M481.583,157.313H30.417H0v319.043h512V157.313H481.583z M393.888,444.485L306.272,393.9l6.071-10.516l-15.072-8.701
			c-14.9,19.403-36.043,34.242-61.445,41.048c-9.949,2.666-19.954,3.939-29.797,3.939c-50.876,0-97.552-33.995-111.332-85.42
			c-16.446-61.373,20.107-124.683,81.48-141.128c61.378-16.446,124.683,20.108,141.129,81.481
			c6.806,25.401,4.526,51.132-4.827,73.737l15.071,8.701l6.072-10.516l87.616,50.586L393.888,444.485z"/>
	</g>
</g>
<g>
	<g>
		<path d="M0,35.644v91.252h30.417h451.166H512V35.644H0z M78.059,96.478H47.135V66.061h30.924V96.478z M129.261,96.478H98.337
			V66.061h30.924V96.478z M180.463,96.478h-30.924V66.061h30.924V96.478z"/>
	</g>
</g>
<g>
	<g>
		<path d="M290.555,281.772c-10.242-38.218-44.976-64.911-84.469-64.911c-7.622,0-15.271,1.014-22.738,3.015
			c-22.554,6.044-41.42,20.534-53.122,40.801c-11.703,20.268-14.818,43.85-8.774,66.405c10.242,38.218,44.975,64.91,84.468,64.91
			c7.621,0,15.271-1.014,22.74-3.015C275.281,376.486,303.047,328.394,290.555,281.772z M220.788,359.596
			c-4.902,1.313-9.905,1.979-14.868,1.979c-25.75,0-48.403-17.421-55.086-42.365c-3.941-14.707-1.904-30.093,5.735-43.323
			c7.639-13.232,19.946-22.688,34.653-26.629c4.899-1.313,9.901-1.979,14.864-1.979c25.749,0,48.403,17.422,55.087,42.366
			C269.324,320.065,251.208,351.447,220.788,359.596z"/>
	</g>
</g>
<g>
</g>
<g>
</g>
<g>
</g>
<g>
</g>
<g>
</g>
<g>
</g>
<g>
</g>
<g>
</g>
<g>
</g>
<g>
</g>
<g>
</g>
<g>
</g>
<g>
</g>
<g>
</g>
<g>
</g>
</svg>
