<?xml version="1.0" encoding="utf-8"?>
<!-- Generator: Adobe Illustrator 22.1.0, SVG Export Plug-In . SVG Version: 6.00 Build 0)  -->
<svg version="1.1" id="图层_1" xmlns="http://www.w3.org/2000/svg" xmlns:xlink="http://www.w3.org/1999/xlink" x="0px" y="0px"
	 viewBox="0 0 16 16" style="enable-background:new 0 0 16 16;" xml:space="preserve">
<path class="st0" d="M9,12c-0.6,0-1-0.4-1-1v-1H7c-0.6,0-1-0.4-1-1s0.4-1,1-1h1V7.6C7.9,7.5,7.8,7.4,7.8,7.2L6.6,6
	c-0.4-0.4-0.4-1.1,0-1.6C7,4,7.7,4,8.2,4.4L9,5.2l0.8-0.8C10.3,4,11,4,11.4,4.4c0.4,0.4,0.4,1.1,0,1.6l-1.2,1.2
	c0,0.1-0.1,0.3-0.2,0.4V8h1c0.6,0,1,0.4,1,1s-0.4,1-1,1h-1v1C10,11.6,9.6,12,9,12z M12,16H6c-2.2,0-4-1.8-4-4h2c0,1.1,0.9,2,2,2h6
	c1.1,0,2-0.9,2-2V4c0-1.1-0.9-2-2-2H6C4.9,2,4,2.9,4,4H2c0-2.2,1.8-4,4-4h6c2.2,0,4,1.8,4,4v8C16,14.2,14.2,16,12,16z M4,6
	c0,0.6-0.4,1-1,1H1C0.4,7,0,6.6,0,6s0.4-1,1-1h2C3.6,5,4,5.4,4,6z M1,9h2c0.6,0,1,0.4,1,1s-0.4,1-1,1H1c-0.6,0-1-0.4-1-1S0.4,9,1,9z
	"/>
</svg>
