<?xml version="1.0" encoding="utf-8"?>
<!-- Generator: Adobe Illustrator 22.1.0, SVG Export Plug-In . SVG Version: 6.00 Build 0)  -->
<svg version="1.1" id="图层_1" xmlns="http://www.w3.org/2000/svg" xmlns:xlink="http://www.w3.org/1999/xlink" x="0px" y="0px"
	 viewBox="0 0 16 16" style="enable-background:new 0 0 16 16;" xml:space="preserve">
<style type="text/css">
	.st0{opacity:0.6;fill:#2D3440;}
</style>
<path class="st0" d="M13.2,13.9c-2.4,0-3.4-1.1-3.9-2.2C11.5,10.8,13,8,13,5.5c0-3-2.2-5.5-5-5.5S3,2.5,3,5.5c0,2.5,1.5,5.3,3.7,6.2
	c-0.4,1-1.5,2.2-3.9,2.2C0,14,0,16,0,16h7.7h0.6H16C16,16,16,14,13.2,13.9z M5,5.5C5,3.6,6.3,2,8,2s3,1.6,3,3.5C11,7.6,9.4,10,8,10
	S5,7.6,5,5.5z"/>
</svg>
