<?xml version="1.0" encoding="utf-8"?>
<!-- Generator: Adobe Illustrator 22.1.0, SVG Export Plug-In . SVG Version: 6.00 Build 0)  -->
<svg version="1.1" id="图层_1" xmlns="http://www.w3.org/2000/svg" xmlns:xlink="http://www.w3.org/1999/xlink" x="0px" y="0px"
	 viewBox="0 0 16 16" style="enable-background:new 0 0 16 16;" xml:space="preserve">
<g class="st0">
	<g>
		<path class="st1" d="M9.1,3.8C9.3,3.6,9.7,3.5,10,3.5c1.2,0,2.2,1.2,2.2,2.6c0,1.6-1.2,3.4-2.2,3.4c-0.4,0-0.9-0.3-1.3-0.8
			c-0.2,0.5-0.5,1-0.8,1.5c0.3,0.3,0.6,0.5,1,0.7c-0.2,0.5-0.6,1-1.2,1.3c0.3,0.1,0.6,0.1,0.9,0.1c1.9,0.1,2.8,1,3.2,1.8H16
			c0,0,0-1.5-2.1-1.6c-1.8,0-2.6-0.9-2.9-1.6c1.6-0.7,2.7-2.8,2.7-4.7C13.8,3.9,12.1,2,10,2C9.4,2,8.9,2.2,8.4,2.4
			C8.7,2.8,8.9,3.3,9.1,3.8z"/>
	</g>
	<path class="st1" d="M8.6,13.1c-2.1,0-3-1-3.4-1.9C7.1,10.5,8.4,8,8.4,5.8C8.4,3.2,6.4,1,4,1C2.2,1,0.7,2.2,0,3.9V8
		c0.5,1.5,1.6,2.8,2.8,3.4C2.4,12.1,1.7,13,0,13.2V15h3.7h0.6H11C11,15,11,13.2,8.6,13.1z M4,9.8c-1.2,0-2.6-2.2-2.6-4
		c0-1.7,1.1-3,2.6-3s2.6,1.4,2.6,3.1C6.6,7.7,5.2,9.8,4,9.8z"/>
</g>
</svg>
